HIERARCHY
ROOT Hips
{
	OFFSET 0.000000 0.000000 0.000000
	CHANNELS 6 Xposition Yposition Zposition Zrotation Xrotation Yrotation
	JOINT Spine
	{
		OFFSET 0.000000 0.000001 11.947999
		CHANNELS 3 Zrotation Xrotation Yrotation
		JOINT Spine1
		{
			OFFSET 0.000000 0.000002 28.892605
			CHANNELS 3 Zrotation Xrotation Yrotation
			JOINT Neck
			{
				OFFSET 0.000000 0.000002 31.806744
				CHANNELS 3 Zrotation Xrotation Yrotation
				JOINT Head
				{
					OFFSET 0.000000 -2.914145 22.584633
					CHANNELS 3 Zrotation Xrotation Yrotation
					End Site
					{
						OFFSET 0.000000 0.000002 29.141464
					}
				}
			}
			JOINT LeftShoulder
			{
				OFFSET 5.796312 0.293755 26.220829
				CHANNELS 3 Zrotation Xrotation Yrotation
				JOINT LeftArm
				{
					OFFSET 16.896124 0.000000 0.000000
					CHANNELS 3 Zrotation Xrotation Yrotation
					JOINT LeftForeArm
					{
						OFFSET 44.564972 0.000000 0.000000
						CHANNELS 3 Zrotation Xrotation Yrotation
						JOINT LeftHand
						{
							OFFSET 34.929039 0.000000 0.000000
							CHANNELS 3 Zrotation Xrotation Yrotation
							End Site
							{
								OFFSET 21.856087 0.000000 0.000000
							}
						}
					}
				}
			}
			JOINT RightShoulder
			{
				OFFSET -5.857178 0.293755 26.220829
				CHANNELS 3 Zrotation Xrotation Yrotation
				JOINT RightArm
				{
					OFFSET -16.896122 0.000000 0.000000
					CHANNELS 3 Zrotation Xrotation Yrotation
					JOINT RightForeArm
					{
						OFFSET -44.564968 0.000000 0.000000
						CHANNELS 3 Zrotation Xrotation Yrotation
						JOINT RightHand
						{
							OFFSET -34.929039 0.000000 0.000000
							CHANNELS 3 Zrotation Xrotation Yrotation
							End Site
							{
								OFFSET -21.856102 0.000000 0.000000
							}
						}
					}
				}
			}
		}
	}
	JOINT LeftUpLeg
	{
		OFFSET 14.570731 0.000000 0.000000
		CHANNELS 3 Zrotation Xrotation Yrotation
		JOINT LeftLeg
		{
			OFFSET 0.000000 -0.000005 -70.361885
			CHANNELS 3 Zrotation Xrotation Yrotation
			JOINT LeftFoot
			{
				OFFSET 0.000000 -0.000004 -54.880959
				CHANNELS 3 Zrotation Xrotation Yrotation
				JOINT LeftToeBase
				{
					OFFSET 0.000000 -21.856096 -9.470978
					CHANNELS 3 Zrotation Xrotation Yrotation
					End Site
					{
						OFFSET 0.000000 -5.828291 0.000000
					}
				}
			}
		}
	}
	JOINT RightUpLeg
	{
		OFFSET -14.570731 0.000000 0.000000
		CHANNELS 3 Zrotation Xrotation Yrotation
		JOINT RightLeg
		{
			OFFSET 0.000000 -0.000005 -70.361885
			CHANNELS 3 Zrotation Xrotation Yrotation
			JOINT RightFoot
			{
				OFFSET 0.000000 -0.000004 -54.880959
				CHANNELS 3 Zrotation Xrotation Yrotation
				JOINT RightToeBase
				{
					OFFSET 0.000000 -21.856096 -9.470978
					CHANNELS 3 Zrotation Xrotation Yrotation
					End Site
					{
						OFFSET 0.000000 -5.828291 0.000000
					}
				}
			}
		}
	}
}
MOTION
Frames: 10
Frame Time: 0.033333
6.422627 -9.163735 -0.306463 -0.290144 -21.796735 4.293480 -6.000255 19.530723 6.266953 4.842878 -3.349922 0.707638 -2.453383 9.719175 -7.412564 -0.168839 2.646469 -1.415724 6.320433 3.252213 11.151250 -58.065310 -20.309013 44.473981 -63.427309 -6.439605 0.000252 1.679601 45.076069 21.859232 -14.664481 3.419840 -8.924466 29.864022 -28.976811 -30.208868 54.233942 -18.267520 0.000714 -20.487905 54.789220 -15.906232 11.222414 20.286676 -12.841878 -0.000001 7.871636 0.000032 12.889347 18.487365 2.307379 -0.000024 -26.201535 0.000000 -21.214392 14.865275 13.503821 -0.000006 13.216403 -0.000003 -7.726121 17.888687 -5.136777 -0.000010 -26.993671 -0.000008
5.693994 -9.198696 -0.362566 -0.613380 -22.226954 5.108234 -5.942449 20.142399 5.794948 4.755577 -3.495507 0.712846 -1.939320 9.540887 -7.303698 -0.165900 2.323984 -1.446753 6.521412 3.392534 11.366013 -57.524120 -20.764762 45.600194 -63.602906 -8.680244 -0.000720 2.556643 44.685485 21.017093 -14.555738 3.562351 -9.374264 29.305268 -28.646128 -31.722363 55.081722 -19.698028 0.000174 -21.480329 53.656515 -13.229615 10.484722 19.579647 -13.956729 0.000001 10.249813 0.000039 13.690307 17.705100 2.945580 -0.000015 -26.165084 0.000005 -21.665307 15.275696 12.535354 0.000001 13.864316 -0.000019 -7.113306 17.281506 -4.503536 0.000011 -27.160324 -0.000003
4.989933 -9.232548 -0.418263 -1.189728 -22.569464 5.906509 -5.750354 20.547314 5.026851 4.574007 -3.555064 0.876124 -1.259608 9.635171 -7.112638 -0.154232 1.961818 -1.399288 7.032697 3.421912 11.302010 -57.591759 -20.765039 45.607475 -64.322767 -8.831225 -0.000500 2.139895 44.533803 20.871685 -14.358518 3.661143 -9.756623 29.945527 -28.474263 -32.376429 55.330731 -18.864520 0.000401 -23.448536 53.149342 -11.013151 10.276222 19.016266 -15.224055 -0.000003 12.097417 0.000044 14.274635 17.095940 3.481906 -0.000021 -26.046675 -0.000004 -22.062740 15.670534 11.572238 -0.000001 14.322992 -0.000002 -6.221908 16.599643 -4.125882 -0.000004 -27.174031 -0.000014
4.323064 -9.258860 -0.452843 -1.719855 -22.837320 6.667408 -5.549694 20.854917 4.227483 4.402849 -3.619406 1.093595 -0.798498 9.810008 -7.062700 -0.136570 1.716459 -1.312543 7.485043 3.447333 10.959613 -58.339241 -20.483753 44.617572 -65.060332 -7.681590 0.000255 1.133206 44.728628 21.213910 -14.139779 3.776751 -10.036070 30.987281 -28.494421 -32.415511 55.402605 -16.995430 -0.000254 -22.629450 53.845769 -12.146471 10.204298 18.719219 -16.477413 -0.000005 13.250015 0.000059 14.750617 16.803560 4.066144 -0.000024 -25.979849 -0.000002 -21.871012 16.242856 10.407310 -0.000012 14.532361 0.000002 -5.944445 16.106648 -3.642591 0.000000 -27.227067 -0.000012
3.720208 -9.287291 -0.469049 -2.057705 -23.054327 7.393021 -5.458371 21.058540 3.484630 4.335315 -3.633247 1.319912 -0.603114 9.956019 -7.154897 -0.121945 1.710915 -1.239038 7.611394 3.428054 10.545930 -58.937108 -20.327367 43.434109 -65.548847 -7.267542 -0.000269 0.989035 44.593783 20.988278 -13.887378 3.843777 -10.268220 31.905156 -28.440153 -32.149134 55.513763 -16.564018 0.000330 -21.744379 53.986116 -12.436122 9.948188 18.698258 -17.553286 -0.000006 13.853662 0.000057 15.311102 16.719053 4.527188 -0.000007 -25.881672 0.000001 -21.865135 16.936210 9.385439 -0.000001 14.366420 -0.000014 -5.697574 15.795214 -3.244631 0.000006 -27.258138 -0.000004
3.195887 -9.301359 -0.468709 -2.262809 -23.157651 7.923410 -5.504475 21.084333 2.940224 4.386249 -3.549902 1.508579 -0.563081 10.039305 -7.201185 -0.102126 1.842819 -1.154865 7.526744 3.323649 10.317552 -59.130389 -20.367452 42.433827 -65.859081 -7.526382 -0.000281 1.295901 44.602252 20.696016 -13.718572 3.806480 -10.470362 32.519893 -28.511066 -31.937159 55.701846 -17.032446 0.000822 -22.522564 53.848785 -11.343129 9.585179 18.827801 -18.315618 -0.000006 14.007927 0.000077 15.892949 16.817918 4.739401 -0.000019 -25.800331 -0.000003 -22.073983 17.510887 8.650086 -0.000001 14.048863 -0.000008 -5.365422 15.554928 -2.955314 -0.000009 -27.262248 -0.000007
2.744631 -9.308069 -0.461766 -2.389019 -23.128784 8.346082 -5.602664 20.997132 2.490015 4.471995 -3.479850 1.656709 -0.647630 10.133296 -7.203520 -0.086413 1.992418 -1.083539 7.369248 3.240775 10.172954 -59.091129 -20.564504 41.642062 -66.034706 -7.404577 -0.000474 2.017721 44.569744 20.024417 -13.670916 3.773035 -10.578358 32.855297 -28.840593 -31.911583 56.065874 -17.106166 0.000423 -22.900318 53.767587 -11.120721 9.455396 18.880733 -19.020371 -0.000010 13.906894 0.000084 16.111694 17.002246 5.165165 -0.000005 -25.735028 -0.000001 -22.163952 18.037608 7.944469 0.000009 13.520019 -0.000019 -5.307332 15.750408 -2.104626 -0.000002 -27.639194 -0.000008
2.359863 -9.293148 -0.449324 -2.475737 -23.000993 8.693611 -5.672059 20.884220 2.121658 4.522091 -3.441078 1.736890 -0.843590 10.241858 -7.224499 -0.091547 2.034094 -1.062495 7.283040 3.195415 10.018113 -59.029357 -20.953110 41.042764 -65.924795 -7.183407 -0.000400 1.956973 44.723443 20.071556 -13.656658 3.754182 -10.628989 32.957678 -29.182974 -31.923594 56.579737 -17.352806 -0.000017 -22.606745 53.856294 -11.644141 9.559256 18.713521 -19.703489 -0.000010 13.833972 0.000077 16.022239 17.228992 5.496364 -0.000009 -25.662334 0.000001 -22.442079 18.323577 7.403829 0.000005 13.129930 -0.000011 -5.057002 15.667785 -1.852145 0.000008 -27.617095 0.000000
2.045080 -9.260865 -0.443830 -2.543911 -22.812840 8.917110 -5.746718 20.781781 1.837053 4.561729 -3.458825 1.805073 -1.120797 10.373278 -7.243054 -0.102601 1.944303 -1.059213 7.200449 3.207727 9.881264 -58.880609 -21.406798 40.546947 -65.710832 -7.398686 0.000261 2.115450 45.004321 20.056005 -13.670158 3.787798 -10.645996 33.221927 -29.330461 -31.744486 56.993277 -18.824491 0.000451 -23.844156 53.951220 -11.069143 9.676704 18.463347 -20.210813 -0.000013 13.767185 0.000094 15.898191 17.442368 5.724171 -0.000018 -25.598151 0.000005 -22.839458 18.377621 7.054190 0.000003 12.933977 -0.000008 -4.661750 15.510881 -1.750995 0.000022 -27.533107 -0.000013
1.784116 -9.242305 -0.441387 -2.606724 -22.670243 9.090768 -5.830472 20.779925 1.548419 4.635412 -3.531803 1.904532 -1.498423 10.451896 -7.209632 -0.111898 1.830890 -1.039250 7.173800 3.269052 9.788961 -58.856669 -21.533817 39.890221 -65.605968 -7.344851 -0.000187 2.577148 45.907805 20.182659 -13.811521 3.884801 -10.664822 33.627344 -29.637755 -31.458359 57.072603 -19.111668 -0.000285 -23.665673 53.701577 -11.246773 9.823004 18.328623 -20.642529 -0.000006 13.581923 0.000071 15.787907 17.668909 5.951513 -0.000022 -25.602857 -1.000006 -23.062404 18.399812 6.735358 -0.000005 12.871696 0.000000 -4.426059 15.362624 -1.659905 0.000002 -27.502026 0.000002
